<?xml version="1.0" encoding="utf-8"?>
<!-- Generator: Adobe Illustrator 19.1.0, SVG Export Plug-In . SVG Version: 6.00 Build 0)  -->
<svg version="1.1" baseProfile="tiny" id="Layer_1" xmlns="http://www.w3.org/2000/svg" xmlns:xlink="http://www.w3.org/1999/xlink"
	 x="0px" y="0px" viewBox="-240 332 130 130" xml:space="preserve">
<g id="Layer_1_1_">
	<path fill="#000000" d="M-175,334.6c-34.4,0-62.4,27.9-62.4,62.4s27.9,62.4,62.4,62.4s62.4-27.9,62.4-62.4S-140.6,334.6-175,334.6z
		 M-198.5,367.5c6.4-5.1,14.6-8.2,23.5-8.2c8.6,0,16.5,2.9,22.9,7.8l-7.2,7.2c-4.5-3.1-9.9-4.9-15.7-4.9c-6.4,0-12.3,2.2-17,5.9
		c-0.7,0.5-1.6,0.4-2.2-0.2c-0.6-0.6-3.5-3.8-4.4-4.9C-199.3,369.2-199.3,368.1-198.5,367.5z M-221.9,397c-0.5,0-0.9-0.2-1.2-0.7
		c-0.3-0.5-0.2-1.1,0.1-1.5l14.1-19.8c0.3-0.4,0.6-0.6,1.2-0.6c0.4,0,0.7,0.2,1.1,0.6l14.2,19.8c0.3,0.4,0.4,1,0.1,1.5
		c-0.3,0.5-0.6,0.7-1.2,0.7h-8.5h-0.7c0.1,5.8,1.9,11.2,5,15.6l-7.1,7.1c-4.9-6.3-7.8-14.2-7.9-22.8h-0.6H-221.9z M-210.7,436.3
		c-0.4,0-0.9-0.2-1.2-0.5l-1.8-1.8c-0.7-0.7-0.7-1.7,0-2.4l73.3-73.3c0.3-0.3,0.8-0.5,1.2-0.5s0.9,0.2,1.2,0.5l1.8,1.8
		c0.7,0.7,0.7,1.7,0,2.4l-73.3,73.3C-209.9,436.1-210.3,436.3-210.7,436.3z M-151.5,426.3c-6.4,5.1-14.6,8.2-23.5,8.2
		c-8.5,0-16.4-2.9-22.8-7.7l7.2-7.2c4.4,3,9.8,4.8,15.6,4.8c6.4,0,12.3-2.2,17-5.9c0.7-0.5,1.6-0.4,2.2,0.2c0.6,0.6,3.5,3.8,4.4,4.9
		C-150.7,424.5-150.7,425.7-151.5,426.3z M-141.1,419.1c-0.3,0.4-0.6,0.6-1.2,0.6c-0.4,0-0.7-0.2-1.1-0.6l-14.2-19.8
		c-0.3-0.4-0.4-1-0.1-1.5c0.3-0.5,0.6-0.7,1.2-0.7h8.4h0.7c0-5.8-1.8-11.3-4.9-15.7l7.2-7.2c4.9,6.4,7.8,14.3,7.8,22.9h0.6h8.6
		c0.5,0,0.9,0.2,1.2,0.7c0.3,0.5,0.2,1.1-0.1,1.5L-141.1,419.1z"/>
</g>
<g id="Layer_2">
	<path fill="#FFFFFF" d="M-139.3,357.7c0.4,0,0.9,0.2,1.2,0.5l1.8,1.8c0.7,0.7,0.7,1.7,0,2.4l-73.3,73.3c-0.3,0.3-0.8,0.5-1.2,0.5
		s-0.9-0.2-1.2-0.5l-1.8-1.8c-0.7-0.7-0.7-1.7,0-2.4l73.3-73.3C-140.1,357.9-139.7,357.7-139.3,357.7"/>
	<g>
		<path fill="#FFFFFF" d="M-194.2,374.9c0.6,0.6,1.5,0.7,2.2,0.2c4.7-3.7,10.6-5.9,17-5.9c5.8,0,11.3,1.8,15.7,4.9l7.2-7.2
			c-6.4-4.9-14.3-7.8-22.9-7.8c-8.9,0-17,3.1-23.5,8.2c-0.8,0.6-0.8,1.8-0.2,2.6C-197.7,371.1-194.8,374.4-194.2,374.9z"/>
		<path fill="#FFFFFF" d="M-126.9,397.7c-0.3-0.5-0.6-0.7-1.2-0.7h-8.6h-0.6c0-8.6-2.9-16.5-7.8-22.9l-7.2,7.2
			c3.1,4.5,4.9,9.9,4.9,15.7h-0.7h-8.4c-0.5,0-0.9,0.2-1.2,0.7c-0.3,0.5-0.2,1.1,0.1,1.5l14.2,19.8c0.3,0.4,0.6,0.6,1.1,0.6
			c0.5,0,0.9-0.2,1.2-0.6l14.1-19.8C-126.7,398.8-126.6,398.3-126.9,397.7z"/>
	</g>
	<g>
		<path fill="#FFFFFF" d="M-212.7,397c0.1,8.6,3,16.5,7.9,22.8l7.1-7.1c-3.1-4.4-5-9.8-5-15.6h0.7h8.5c0.5,0,0.9-0.2,1.2-0.7
			c0.3-0.5,0.2-1.1-0.1-1.5l-14.2-19.8c-0.3-0.4-0.6-0.6-1.1-0.6c-0.5,0-0.9,0.2-1.2,0.6l-14.1,19.8c-0.3,0.4-0.4,1-0.1,1.5
			c0.3,0.5,0.6,0.7,1.2,0.7h8.6H-212.7z"/>
		<path fill="#FFFFFF" d="M-155.8,418.8c-0.6-0.6-1.5-0.7-2.2-0.2c-4.7,3.7-10.6,5.9-17,5.9c-5.8,0-11.1-1.8-15.6-4.8l-7.2,7.2
			c6.3,4.8,14.2,7.7,22.8,7.7c8.9,0,17-3.1,23.5-8.2c0.8-0.6,0.8-1.8,0.2-2.6C-152.3,422.6-155.2,419.4-155.8,418.8z"/>
	</g>
</g>
</svg>
