<?xml version="1.0" encoding="utf-8"?>
<!-- Generator: Adobe Illustrator 19.1.0, SVG Export Plug-In . SVG Version: 6.00 Build 0)  -->
<svg version="1.1" baseProfile="tiny" id="Layer_1" xmlns="http://www.w3.org/2000/svg" xmlns:xlink="http://www.w3.org/1999/xlink"
	 x="0px" y="0px" viewBox="-240 332 130 130" xml:space="preserve">
<g id="Layer_1_1_">
	<path fill="#000000" d="M-175,340.9c-31,0-56.1,25.1-56.1,56.1s25.1,56.1,56.1,56.1s56.1-25.1,56.1-56.1S-144,340.9-175,340.9z
		 M-196.1,370.4c5.8-4.6,13.1-7.4,21.1-7.4c7.7,0,14.9,2.6,20.6,7l-6.4,6.4c-4-2.8-8.9-4.4-14.2-4.4c-5.8,0-11.1,2-15.3,5.3
		c-0.6,0.5-1.4,0.4-2-0.2c-0.5-0.5-3.1-3.5-4-4.4C-196.9,372-196.8,371-196.1,370.4z M-217.2,397c-0.5,0-0.8-0.2-1.1-0.7
		c-0.3-0.5-0.2-1,0.1-1.3l12.7-17.8c0.3-0.4,0.6-0.6,1.1-0.6c0.4,0,0.7,0.2,1,0.6l12.8,17.8c0.3,0.4,0.4,0.9,0.1,1.3
		c-0.3,0.5-0.6,0.7-1.1,0.7h-7.6h-0.6c0,5.2,1.7,10.1,4.5,14.1l-6.4,6.4c-4.4-5.7-7-12.8-7.1-20.5h-0.5H-217.2z M-207.2,432.3
		c-0.4,0-0.8-0.1-1.1-0.4l-1.7-1.7c-0.6-0.6-0.6-1.6,0-2.2l66-66c0.3-0.3,0.7-0.4,1.1-0.4s0.8,0.1,1.1,0.4l1.7,1.7
		c0.6,0.6,0.6,1.6,0,2.2l-66,66C-206.4,432.2-206.8,432.3-207.2,432.3z M-153.9,423.3c-5.8,4.6-13.1,7.4-21.1,7.4
		c-7.7,0-14.8-2.6-20.5-6.9l6.4-6.4c4,2.7,8.8,4.3,14,4.3c5.8,0,11.1-2,15.3-5.3c0.6-0.5,1.4-0.4,2,0.2c0.5,0.5,3.1,3.5,4,4.4
		C-153.1,421.8-153.2,422.8-153.9,423.3z M-144.5,416.9c-0.3,0.4-0.6,0.6-1.1,0.6c-0.4,0-0.7-0.2-1-0.6l-12.8-17.8
		c-0.3-0.4-0.4-0.9-0.1-1.3c0.3-0.5,0.6-0.7,1.1-0.7h7.6h0.7c0-5.3-1.6-10.1-4.4-14.2l6.4-6.4c4.4,5.7,7,12.9,7,20.6h0.5h7.7
		c0.5,0,0.8,0.2,1.1,0.7c0.3,0.5,0.2,1-0.1,1.3L-144.5,416.9z"/>
</g>
<g id="Layer_2">
	<path fill="#FFFFFF" d="M-142.8,361.7c0.4,0,0.8,0.1,1.1,0.4l1.7,1.7c0.6,0.6,0.6,1.6,0,2.2l-66,66c-0.3,0.3-0.7,0.4-1.1,0.4
		c-0.4,0-0.8-0.1-1.1-0.4l-1.7-1.7c-0.6-0.6-0.6-1.6,0-2.2l66-66C-143.6,361.8-143.2,361.7-142.8,361.7"/>
	<g>
		<path fill="#FFFFFF" d="M-192.3,377.1c0.6,0.6,1.4,0.6,2,0.2c4.2-3.3,9.5-5.3,15.3-5.3c5.3,0,10.1,1.6,14.2,4.4l6.4-6.4
			c-5.7-4.4-12.9-7-20.6-7c-8,0-15.3,2.8-21.1,7.4c-0.7,0.5-0.8,1.6-0.1,2.3C-195.4,373.7-192.8,376.6-192.3,377.1z"/>
		<path fill="#FFFFFF" d="M-131.7,397.7c-0.3-0.5-0.6-0.7-1.1-0.7h-7.7h-0.5c0-7.7-2.6-14.9-7-20.6l-6.4,6.4c2.8,4,4.4,8.9,4.4,14.2
			h-0.7h-7.6c-0.5,0-0.8,0.2-1.1,0.7c-0.3,0.5-0.2,1,0.1,1.3l12.8,17.8c0.3,0.4,0.6,0.6,1,0.6c0.5,0,0.8-0.2,1.1-0.6l12.7-17.8
			C-131.5,398.6-131.4,398.2-131.7,397.7z"/>
	</g>
	<g>
		<path fill="#FFFFFF" d="M-209,397c0.1,7.7,2.7,14.8,7.1,20.5l6.4-6.4c-2.8-4-4.5-8.8-4.5-14.1h0.6h7.6c0.5,0,0.8-0.2,1.1-0.7
			c0.3-0.5,0.2-1-0.1-1.3l-12.8-17.8c-0.3-0.4-0.6-0.6-1-0.6c-0.5,0-0.8,0.2-1.1,0.6l-12.7,17.8c-0.3,0.4-0.4,0.9-0.1,1.3
			c0.3,0.5,0.6,0.7,1.1,0.7h7.7H-209z"/>
		<path fill="#FFFFFF" d="M-157.7,416.6c-0.6-0.6-1.4-0.6-2-0.2c-4.2,3.3-9.5,5.3-15.3,5.3c-5.2,0-10-1.6-14-4.3l-6.4,6.4
			c5.7,4.3,12.8,6.9,20.5,6.9c8,0,15.3-2.8,21.1-7.4c0.7-0.5,0.8-1.6,0.1-2.3C-154.6,420.1-157.2,417.1-157.7,416.6z"/>
	</g>
</g>
</svg>
