<?xml version="1.0" encoding="utf-8"?>
<!-- Generator: Adobe Illustrator 19.1.0, SVG Export Plug-In . SVG Version: 6.00 Build 0)  -->
<svg version="1.1" id="Layer_1" xmlns="http://www.w3.org/2000/svg" xmlns:xlink="http://www.w3.org/1999/xlink" x="0px" y="0px"
	 viewBox="-240 332 130 130" style="enable-background:new -240 332 130 130;" xml:space="preserve">
<style type="text/css">
	.st0{fill:#000000;}
	.st1{fill:#FFFFFF;}
</style>
<g id="Layer_1_1_">
</g>
<g id="Layer_2">
	<path class="st0" d="M-122.1,341.5h-105.8c-1.4,0-2.6,1.1-2.6,2.6v105.8c0,1.4,1.1,2.6,2.6,2.6h105.8c1.4,0,2.6-1.1,2.6-2.6V344.1
		C-119.6,342.7-120.7,341.5-122.1,341.5z M-132.8,381.7l-50.8,50.8c-0.3,0.3-0.8,0.5-1.2,0.5c-0.5,0-0.9-0.1-1.3-0.5l-31.7-31.8
		c-0.7-0.7-0.7-1.7,0-2.4l12.5-12.5c0.7-0.7,1.7-0.7,2.4,0l18,18l37.1-37.1c0.7-0.7,1.7-0.7,2.4,0l12.5,12.5
		C-132.1,379.9-132.1,381-132.8,381.7z"/>
	<path class="st1" d="M-147.7,366.8l-37.1,37.1l-18-18c-0.7-0.7-1.7-0.7-2.4,0l-12.5,12.5c-0.7,0.7-0.7,1.7,0,2.4l31.7,31.8
		c0.3,0.3,0.8,0.5,1.3,0.5c0.4,0,0.9-0.2,1.2-0.5l50.8-50.9c0.7-0.7,0.7-1.7,0-2.4l-12.5-12.5C-145.9,366.1-147,366.1-147.7,366.8z"
		/>
</g>
</svg>
