<?xml version="1.0" encoding="utf-8"?>
<!-- Generator: Adobe Illustrator 19.1.0, SVG Export Plug-In . SVG Version: 6.00 Build 0)  -->
<svg version="1.1" baseProfile="tiny" id="Layer_1" xmlns="http://www.w3.org/2000/svg" xmlns:xlink="http://www.w3.org/1999/xlink"
	 x="0px" y="0px" viewBox="-240 332 130 130" xml:space="preserve">
<g id="Layer_1_1_">
	<g>
		<rect x="-209.6" y="397" fill="#000000" width="35.7" height="24.6"/>
		<path fill="#000000" d="M-175,334.6c-34.4,0-62.4,27.9-62.4,62.4c0,34.4,27.9,62.4,62.4,62.4c34.4,0,62.4-27.9,62.4-62.4
			C-112.6,362.6-140.6,334.6-175,334.6z M-167.9,422.9c0,2.6-2.1,4.7-4.7,4.7h-38.3c-2.6,0-4.7-2.1-4.7-4.7v-27.2
			c0-2.6,2.1-4.7,4.7-4.7h38.3c2.6,0,4.7,2.1,4.7,4.7L-167.9,422.9L-167.9,422.9z M-132.5,369.9l-19.5,14c-0.1,0-0.1,0.1-0.2,0.1
			l0.7,1l3.7,5.2c0.2,0.3,0.2,0.6,0.1,1c-0.2,0.4-0.5,0.6-0.9,0.6l-18,0.1c-0.4,0-0.7-0.1-0.9-0.4c-0.2-0.3-0.2-0.5-0.1-0.9
			l5.8-17.1c0.1-0.4,0.4-0.7,0.8-0.7c0.5,0,0.7,0.1,1,0.4l3.6,5.1l0.7,0.9c0.1,0,0.1-0.1,0.2-0.1l19.5-14c0.8-0.5,1.8-0.4,2.4,0.4
			l1.5,2.1C-131.6,368.3-131.8,369.4-132.5,369.9z"/>
	</g>
</g>
<g id="Layer_2">
	<g>
		<path fill="#FFFFFF" d="M-132.1,367.5l-1.5-2.1c-0.5-0.8-1.6-0.9-2.4-0.4l-19.5,14c-0.1,0-0.1,0.1-0.2,0.1l-0.7-0.9l-3.6-5.1
			c-0.2-0.3-0.5-0.4-1-0.4c-0.5,0-0.7,0.3-0.8,0.7l-5.8,17.1c-0.1,0.4-0.1,0.7,0.1,0.9c0.2,0.3,0.5,0.4,0.9,0.4l18-0.1
			c0.4,0,0.8-0.2,0.9-0.6c0.2-0.4,0.2-0.7-0.1-1l-3.7-5.2l-0.7-1c0.1,0,0.1-0.1,0.2-0.1l19.5-14
			C-131.8,369.4-131.6,368.3-132.1,367.5z"/>
		<path fill="#FFFFFF" d="M-172.6,391h-38.3c-2.6,0-4.7,2.1-4.7,4.7v27.2c0,2.6,2.1,4.7,4.7,4.7h38.3c2.6,0,4.7-2.1,4.7-4.7v-27.2
			C-167.9,393.1-170,391-172.6,391z M-173.9,421.6h-35.7V397h35.7V421.6z"/>
	</g>
</g>
</svg>
