<?xml version="1.0" encoding="utf-8"?>
<!-- Generator: Adobe Illustrator 19.1.0, SVG Export Plug-In . SVG Version: 6.00 Build 0)  -->
<svg version="1.1" baseProfile="tiny" id="Layer_1" xmlns="http://www.w3.org/2000/svg" xmlns:xlink="http://www.w3.org/1999/xlink"
	 x="0px" y="0px" viewBox="-240 332 130 130" xml:space="preserve">
<g id="Layer_1_1_">
	<g>
		<rect x="-206.2" y="397" fill="#000000" width="32.1" height="22.2"/>
		<path fill="#000000" d="M-175,340.9c-31,0-56.1,25.1-56.1,56.1c0,31,25.1,56.1,56.1,56.1c31,0,56.1-25.1,56.1-56.1
			C-118.9,366-144,340.9-175,340.9z M-168.6,420.3c0,2.3-1.9,4.2-4.2,4.2h-34.5c-2.3,0-4.2-1.9-4.2-4.2v-24.5c0-2.3,1.9-4.2,4.2-4.2
			h34.5c2.3,0,4.2,1.9,4.2,4.2L-168.6,420.3L-168.6,420.3z M-136.8,372.6l-17.5,12.6c-0.1,0-0.1,0.1-0.2,0.1l0.7,0.9l3.3,4.7
			c0.2,0.3,0.2,0.5,0.1,0.9c-0.2,0.4-0.5,0.5-0.8,0.5l-16.2,0.1c-0.4,0-0.6-0.1-0.8-0.4c-0.2-0.2-0.2-0.5-0.1-0.8l5.2-15.4
			c0.1-0.3,0.4-0.6,0.8-0.6c0.4,0,0.7,0.1,0.9,0.3l3.3,4.6l0.6,0.8c0,0,0.1-0.1,0.1-0.1l17.5-12.6c0.7-0.5,1.6-0.3,2.1,0.4l1.4,1.9
			C-135.9,371.2-136.1,372.1-136.8,372.6z"/>
	</g>
</g>
<g id="Layer_2">
	<g>
		<path fill="#FFFFFF" d="M-136.4,370.5l-1.4-1.9c-0.5-0.7-1.5-0.8-2.1-0.4l-17.5,12.6c-0.1,0-0.1,0.1-0.1,0.1l-0.6-0.8l-3.3-4.6
			c-0.2-0.3-0.4-0.4-0.9-0.3c-0.4,0-0.7,0.3-0.8,0.6l-5.2,15.4c-0.1,0.3-0.1,0.6,0.1,0.8c0.2,0.3,0.4,0.4,0.8,0.4l16.2-0.1
			c0.4,0,0.7-0.1,0.8-0.5c0.2-0.4,0.2-0.6-0.1-0.9l-3.3-4.7l-0.7-0.9c0.1,0,0.1-0.1,0.2-0.1l17.5-12.6
			C-136.1,372.1-135.9,371.2-136.4,370.5z"/>
		<path fill="#FFFFFF" d="M-172.8,391.6h-34.5c-2.3,0-4.2,1.9-4.2,4.2v24.5c0,2.3,1.9,4.2,4.2,4.2h34.5c2.3,0,4.2-1.9,4.2-4.2v-24.5
			C-168.6,393.5-170.5,391.6-172.8,391.6z M-174,419.2h-32.1V397h32.1V419.2z"/>
	</g>
</g>
</svg>
