<?xml version="1.0" encoding="utf-8"?>
<!-- Generator: Adobe Illustrator 19.1.0, SVG Export Plug-In . SVG Version: 6.00 Build 0)  -->
<svg version="1.1" baseProfile="tiny" id="Layer_1" xmlns="http://www.w3.org/2000/svg" xmlns:xlink="http://www.w3.org/1999/xlink"
	 x="0px" y="0px" viewBox="-240 332 130 130" xml:space="preserve">
<g id="Layer_1_1_">
	<g>
		<path fill="#000000" d="M-196.3,414.7h42.7v-44h-42.7V414.7z M-155.5,412.9H-183l19-18.6c0.3-0.3,0.6-0.4,1-0.4
			c0.4,0,0.7,0.1,1,0.4l6.5,6.4V412.9z M-162.9,376c2.2,0,4,1.8,4,4c0,2.2-1.8,4-4,4c-2.2,0-4-1.8-4-4
			C-166.8,377.8-165.1,376-162.9,376z M-194.5,397.8l9.7-9.4c0.3-0.3,0.6-0.4,1-0.4c0.4,0,0.7,0.1,1,0.4l11.2,10.9l-13.9,13.6h-9
			L-194.5,397.8L-194.5,397.8z"/>
		<path fill="#000000" d="M-175,340.9c-31,0-56.1,25.1-56.1,56.1c0,31,25.1,56.1,56.1,56.1s56.1-25.1,56.1-56.1
			S-144,340.9-175,340.9z M-149.5,425.5c0,1.3-1,2.3-2.3,2.3h-46.4c-1.3,0-2.3-1-2.3-2.3v-57c0-1.3,1-2.3,2.3-2.3h46.4
			c1.3,0,2.3,1,2.3,2.3L-149.5,425.5L-149.5,425.5z"/>
	</g>
</g>
<g id="Layer_2">
	<g>
		<path fill="#FFFFFF" d="M-151.8,366.2h-46.4c-1.3,0-2.3,1-2.3,2.3v57c0,1.3,1,2.3,2.3,2.3h46.4c1.3,0,2.3-1,2.3-2.3v-57
			C-149.5,367.2-150.5,366.2-151.8,366.2z M-153.7,414.7h-42.7v-44h42.7V414.7z"/>
		<circle fill="#FFFFFF" cx="-162.9" cy="379.9" r="4"/>
		<path fill="#FFFFFF" d="M-171.7,399.3l-11.2-10.9c-0.3-0.3-0.6-0.4-1-0.4s-0.7,0.1-1,0.4l-9.7,9.4v15.1h9L-171.7,399.3z"/>
		<path fill="#FFFFFF" d="M-163,393.9c-0.4,0-0.7,0.1-1,0.4l-19,18.6h27.5v-12.2l-6.5-6.4C-162.2,394-162.6,393.9-163,393.9z"/>
	</g>
</g>
</svg>
