<?xml version="1.0" encoding="utf-8"?>
<!-- Generator: Adobe Illustrator 19.1.0, SVG Export Plug-In . SVG Version: 6.00 Build 0)  -->
<svg version="1.1" baseProfile="tiny" id="Layer_1" xmlns="http://www.w3.org/2000/svg" xmlns:xlink="http://www.w3.org/1999/xlink"
	 x="0px" y="0px" viewBox="-240 332 130 130" xml:space="preserve">
<g id="Layer_1_1_">
	<path fill="#000000" d="M-175,340.9c-31,0-56.1,25.1-56.1,56.1s25.1,56.1,56.1,56.1c31,0,56.1-25.1,56.1-56.1S-144,340.9-175,340.9
		z M-178.1,361.1l6.2,0c3.5,0,6.4,2.9,6.4,6.4v2.9c0,3.5-2.9,6.4-6.4,6.4h-6.2c-3.5,0-6.4-2.9-6.4-6.4l0-2.9
		C-184.5,364-181.6,361.1-178.1,361.1z M-167,430.4H-183c-0.8,0-1.5-0.7-1.5-1.5l0-37.7c0-0.8,0.7-1.5,1.5-1.5l15.9,0
		c0.8,0,1.5,0.7,1.5,1.5l0,37.7C-165.5,429.7-166.2,430.4-167,430.4z"/>
</g>
<g id="Layer_2">
	<g>
		<path fill="#FFFFFF" d="M-165.5,391.2c0-0.8-0.7-1.5-1.5-1.5l-15.9,0c-0.8,0-1.5,0.7-1.5,1.5l0,37.7c0,0.8,0.7,1.5,1.5,1.5h15.9
			c0.8,0,1.5-0.7,1.5-1.5L-165.5,391.2z"/>
		<path fill="#FFFFFF" d="M-178.1,376.8h6.2c3.5,0,6.4-2.9,6.4-6.4v-2.9c0-3.5-2.9-6.4-6.4-6.4l-6.2,0c-3.5,0-6.4,2.9-6.4,6.4l0,2.9
			C-184.5,374-181.6,376.8-178.1,376.8z"/>
	</g>
</g>
</svg>
