<?xml version="1.0" encoding="utf-8"?>
<!-- Generator: Adobe Illustrator 19.1.0, SVG Export Plug-In . SVG Version: 6.00 Build 0)  -->
<svg version="1.1" baseProfile="tiny" id="Layer_1" xmlns="http://www.w3.org/2000/svg" xmlns:xlink="http://www.w3.org/1999/xlink"
	 x="0px" y="0px" viewBox="-240 332 130 130" xml:space="preserve">
<g id="Layer_1_1_">
	<path fill="#000000" d="M-130.9,352.9c-24.4-24.4-63.8-24.4-88.2,0c-24.4,24.4-24.4,63.8,0,88.2c24.4,24.4,63.8,24.4,88.2,0
		S-106.5,377.3-130.9,352.9z M-142.5,414.5c0.8,0.8,0.8,1.7-0.1,2.7l-12.2,12.2c-0.4,0.4-0.8,0.6-1.4,0.6c-0.6,0-1-0.1-1.3-0.4
		l-17.5-17.5l-17.4,17.4c-0.4,0.4-0.8,0.6-1.4,0.6c-0.6,0-1-0.1-1.3-0.4l-12.3-12.3c-0.3-0.3-0.4-0.7-0.4-1.3c0-0.6,0.1-1,0.6-1.4
		l17.4-17.4l-17.5-17.5c-0.3-0.3-0.4-0.7-0.4-1.3c0-0.6,0.1-1,0.6-1.4l12.2-12.2c1-1,1.8-1,2.7-0.1l17.5,17.5l17.4-17.4
		c1-1,1.8-1,2.7-0.1l12.3,12.3c0.8,0.8,0.8,1.7-0.1,2.7l-17.4,17.4L-142.5,414.5z"/>
</g>
<g id="Layer_2">
	<path fill="#FFFFFF" d="M-160.1,396.9l17.5,17.5c0.8,0.8,0.8,1.7-0.1,2.7l-12.2,12.2c-0.4,0.4-0.8,0.6-1.4,0.6
		c-0.6,0-1-0.1-1.3-0.4l-17.5-17.5l-17.4,17.4c-0.4,0.4-0.8,0.6-1.4,0.6c-0.6,0-1-0.1-1.3-0.4l-12.3-12.3c-0.3-0.3-0.4-0.7-0.4-1.3
		c0-0.6,0.1-1,0.6-1.4l17.4-17.4l-17.5-17.5c-0.3-0.3-0.4-0.7-0.4-1.3c0-0.6,0.1-1,0.6-1.4l12.2-12.2c1-1,1.8-1,2.7-0.1l17.5,17.5
		l17.4-17.4c1-1,1.8-1,2.7-0.1l12.3,12.3c0.8,0.8,0.8,1.7-0.1,2.7L-160.1,396.9z"/>
</g>
</svg>
