<?xml version="1.0" encoding="utf-8"?>
<!-- Generator: Adobe Illustrator 19.1.0, SVG Export Plug-In . SVG Version: 6.00 Build 0)  -->
<svg version="1.1" baseProfile="tiny" id="Layer_1" xmlns="http://www.w3.org/2000/svg" xmlns:xlink="http://www.w3.org/1999/xlink"
	 x="0px" y="0px" viewBox="-240 332 130 130" xml:space="preserve">
<g id="Layer_1_1_">
	<path fill="#000000" d="M-175,334.6c-34.4,0-62.4,27.9-62.4,62.4s27.9,62.4,62.4,62.4c34.4,0,62.4-27.9,62.4-62.4
		S-140.6,334.6-175,334.6z M-178.5,357.1l6.9,0c3.9,0,7.1,3.2,7.1,7.1v3.3c0,3.9-3.2,7.1-7.1,7.1h-6.9c-3.9,0-7.1-3.2-7.1-7.1l0-3.3
		C-185.6,360.3-182.4,357.1-178.5,357.1z M-166.1,434.1h-17.7c-0.9,0-1.7-0.8-1.7-1.7l0-41.9c0-0.9,0.8-1.7,1.7-1.7l17.7,0
		c0.9,0,1.7,0.8,1.7,1.7l0,41.9C-164.4,433.3-165.2,434.1-166.1,434.1z"/>
</g>
<g id="Layer_2">
	<g>
		<path fill="#FFFFFF" d="M-164.4,390.5c0-0.9-0.8-1.7-1.7-1.7l-17.7,0c-0.9,0-1.7,0.8-1.7,1.7l0,41.9c0,0.9,0.8,1.7,1.7,1.7h17.7
			c0.9,0,1.7-0.8,1.7-1.7L-164.4,390.5z"/>
		<path fill="#FFFFFF" d="M-178.5,374.6h6.9c3.9,0,7.1-3.2,7.1-7.1v-3.3c0-3.9-3.2-7.1-7.1-7.1l-6.9,0c-3.9,0-7.1,3.2-7.1,7.1l0,3.3
			C-185.5,371.4-182.4,374.6-178.5,374.6z"/>
	</g>
</g>
</svg>
