<?xml version="1.0" encoding="utf-8"?>
<!-- Generator: Adobe Illustrator 19.1.0, SVG Export Plug-In . SVG Version: 6.00 Build 0)  -->
<svg version="1.1" baseProfile="tiny" id="Layer_1" xmlns="http://www.w3.org/2000/svg" xmlns:xlink="http://www.w3.org/1999/xlink"
	 x="0px" y="0px" viewBox="-240 332 130 130" xml:space="preserve">
<g id="Layer_1_1_">
	<path fill="#000000" d="M-135.3,357.3c-21.9-21.9-57.5-21.9-79.4,0c-21.9,21.9-21.9,57.5,0,79.4c21.9,21.9,57.5,21.9,79.4,0
		S-113.4,379.2-135.3,357.3z M-145.8,412.7c0.8,0.8,0.8,1.5-0.1,2.4l-10.9,10.9c-0.4,0.4-0.8,0.5-1.3,0.5c-0.5,0-0.9-0.1-1.1-0.4
		l-15.8-15.8l-15.7,15.7c-0.4,0.4-0.8,0.5-1.3,0.5s-0.9-0.1-1.1-0.4l-11.1-11.1c-0.3-0.3-0.4-0.6-0.4-1.1c0-0.5,0.1-0.9,0.5-1.3
		l15.7-15.7l-15.8-15.8c-0.3-0.3-0.4-0.6-0.4-1.1c0-0.5,0.1-0.9,0.5-1.3l10.9-10.9c0.9-0.9,1.7-0.9,2.4-0.1l15.8,15.8l15.7-15.7
		c0.9-0.9,1.7-0.9,2.4-0.1l11.1,11.1c0.8,0.8,0.8,1.5-0.1,2.4l-15.7,15.7L-145.8,412.7z"/>
</g>
<g id="Layer_2">
	<path fill="#FFFFFF" d="M-161.6,396.9l15.8,15.8c0.8,0.8,0.8,1.5-0.1,2.4l-10.9,10.9c-0.4,0.4-0.8,0.5-1.3,0.5
		c-0.5,0-0.9-0.1-1.1-0.4l-15.8-15.8l-15.7,15.7c-0.4,0.4-0.8,0.5-1.3,0.5s-0.9-0.1-1.1-0.4l-11.1-11.1c-0.3-0.3-0.4-0.6-0.4-1.1
		c0-0.5,0.1-0.9,0.5-1.3l15.7-15.7l-15.8-15.8c-0.3-0.3-0.4-0.6-0.4-1.1c0-0.5,0.1-0.9,0.5-1.3l10.9-10.9c0.9-0.9,1.7-0.9,2.4-0.1
		l15.8,15.8l15.7-15.7c0.9-0.9,1.7-0.9,2.4-0.1l11.1,11.1c0.8,0.8,0.8,1.5-0.1,2.4L-161.6,396.9z"/>
</g>
</svg>
