<?xml version="1.0" encoding="utf-8"?>
<!-- Generator: Adobe Illustrator 19.1.0, SVG Export Plug-In . SVG Version: 6.00 Build 0)  -->
<svg version="1.1" baseProfile="tiny" id="Layer_1" xmlns="http://www.w3.org/2000/svg" xmlns:xlink="http://www.w3.org/1999/xlink"
	 x="0px" y="0px" viewBox="-240 332 130 130" xml:space="preserve">
<g id="Layer_1_1_">
	<g>
		<path fill="#000000" d="M-175,341c-31,0-56.1,25.1-56.1,56.1c0,31,25.1,56.1,56.1,56.1s56.1-25.1,56.1-56.1
			C-118.9,366.1-144,341-175,341z M-137.9,420c0,0.8-0.4,1.5-1.1,1.9c-0.7,0.4-1.5,0.5-2.2,0.1c-8.7-4.2-21-6.6-33.8-6.6
			c-12.8,0-25.2,2.4-33.8,6.6c-0.3,0.2-0.6,0.2-1,0.2c-0.4,0-0.8-0.1-1.2-0.3c-0.7-0.4-1.1-1.1-1.1-1.9v-45.8c0-0.8,0.4-1.5,1.1-1.9
			c0.7-0.4,1.5-0.5,2.2-0.1c8.7,4.2,21,6.6,33.8,6.6c12.8,0,25.2-2.4,33.8-6.6c0.7-0.3,1.5-0.3,2.2,0.1c0.7,0.4,1.1,1.1,1.1,1.9
			C-137.9,374.2-137.9,420-137.9,420z"/>
		<path fill="#000000" d="M-207.6,377.7v38.9c8.9-3.6,20.6-5.6,32.6-5.6c12,0,23.6,2,32.6,5.6v-38.9c-8.9,3.6-20.6,5.6-32.6,5.6
			C-187,383.3-198.6,381.2-207.6,377.7z M-175,409.1c-11.1,0-22,1.7-30.8,4.8v-6.7c8.5-1.4,19.4-2.3,30.8-2.3c2.1,0,4.1,0,6.2,0.1
			l-4.2,4.1C-173.7,409.2-174.3,409.1-175,409.1z M-144.2,413.9c-7.6-2.7-16.7-4.3-26.3-4.7l15.6-15.2c0.3-0.3,0.6-0.4,1-0.4
			c0.4,0,0.7,0.1,1,0.4l8.7,8.5C-144.2,402.5-144.2,413.9-144.2,413.9z M-154.6,383c2.3-0.4,4.4,0.6,4.7,2.3
			c0.3,1.7-1.3,3.4-3.5,3.9c-2.3,0.4-4.4-0.6-4.7-2.3C-158.4,385.2-156.9,383.5-154.6,383z M-173.2,389.9l10,9.7l-3.8,3.7
			c-2.6-0.1-5.3-0.1-8-0.1c-5.4,0-10.7,0.2-15.7,0.5l14.2-13.9C-175.6,389-174.1,389-173.2,389.9z"/>
	</g>
</g>
<g id="Layer_2">
	<g>
		<path fill="#FFFFFF" d="M-190.7,403.8c5-0.3,10.3-0.5,15.7-0.5c2.7,0,5.3,0,8,0.1l3.8-3.7l-10-9.7c-0.9-0.9-2.4-0.9-3.3,0
			L-190.7,403.8z"/>
		<path fill="#FFFFFF" d="M-175,405c-11.3,0-22.3,0.8-30.8,2.3v6.7c8.8-3.1,19.6-4.8,30.8-4.8c0.7,0,1.3,0,2,0l4.2-4.1
			C-170.9,405-172.9,405-175,405z"/>
		<path fill="#FFFFFF" d="M-153.9,393.6c-0.4,0-0.7,0.1-1,0.4l-15.6,15.2c9.5,0.4,18.7,2,26.3,4.7v-11.4l-8.7-8.5
			C-153.2,393.8-153.5,393.6-153.9,393.6z"/>
		<path fill="#FFFFFF" d="M-139,372.3c-0.7-0.4-1.5-0.5-2.2-0.1c-8.7,4.2-21,6.6-33.8,6.6c-12.9,0-25.2-2.4-33.8-6.6
			c-0.7-0.3-1.5-0.3-2.2,0.1c-0.7,0.4-1.1,1.1-1.1,1.9V420c0,0.8,0.4,1.5,1.1,1.9c0.4,0.2,0.8,0.3,1.2,0.3c0.3,0,0.7-0.1,1-0.2
			c8.7-4.2,21-6.6,33.8-6.6c12.8,0,25.2,2.4,33.8,6.6c0.7,0.3,1.5,0.3,2.2-0.1c0.7-0.4,1.1-1.1,1.1-1.9v-45.8
			C-137.9,373.4-138.3,372.7-139,372.3z M-142.4,416.5c-8.9-3.6-20.6-5.6-32.6-5.6s-23.6,2-32.6,5.6v-38.9
			c8.9,3.6,20.6,5.6,32.6,5.6c12,0,23.6-2,32.6-5.6V416.5z"/>
		<path fill="#FFFFFF" d="M-153.4,389.2c2.3-0.4,3.9-2.2,3.5-3.9c-0.3-1.7-2.4-2.7-4.7-2.3c-2.3,0.4-3.9,2.2-3.5,3.9
			C-157.8,388.6-155.7,389.6-153.4,389.2z"/>
	</g>
</g>
</svg>
