<?xml version="1.0" encoding="utf-8"?>
<!-- Generator: Adobe Illustrator 19.1.0, SVG Export Plug-In . SVG Version: 6.00 Build 0)  -->
<svg version="1.1" baseProfile="tiny" id="Layer_1" xmlns="http://www.w3.org/2000/svg" xmlns:xlink="http://www.w3.org/1999/xlink"
	 x="0px" y="0px" viewBox="-240 332 130 130" xml:space="preserve">
<g id="Layer_1_1_">
	<g>
		<path fill="#000000" d="M-175,334.7c-34.4,0-62.4,27.9-62.4,62.4c0,34.4,27.9,62.4,62.4,62.4s62.4-27.9,62.4-62.4
			C-112.6,362.7-140.6,334.7-175,334.7z M-133.8,422.5c0,0.9-0.4,1.7-1.2,2.1c-0.7,0.5-1.6,0.5-2.4,0.1c-9.6-4.6-23.3-7.3-37.6-7.3
			s-28,2.7-37.6,7.3c-0.3,0.2-0.7,0.2-1.1,0.2c-0.5,0-0.9-0.1-1.3-0.4c-0.7-0.5-1.2-1.3-1.2-2.1v-50.9c0-0.9,0.4-1.7,1.2-2.1
			c0.7-0.5,1.6-0.5,2.4-0.1c9.6,4.6,23.3,7.3,37.6,7.3c14.3,0,28-2.7,37.6-7.3c0.8-0.4,1.7-0.3,2.4,0.1c0.7,0.5,1.2,1.3,1.2,2.1
			C-133.8,371.7-133.8,422.5-133.8,422.5z"/>
		<path fill="#000000" d="M-211.2,375.5v43.2c9.9-4,22.9-6.2,36.2-6.2s26.3,2.2,36.2,6.2v-43.2c-9.9,4-22.9,6.2-36.2,6.2
			C-188.3,381.7-201.3,379.5-211.2,375.5z M-175,410.5c-12.4,0-24.4,1.9-34.2,5.3v-7.4c9.4-1.6,21.6-2.5,34.2-2.5
			c2.3,0,4.6,0,6.9,0.1l-4.6,4.5C-173.5,410.5-174.3,410.5-175,410.5z M-140.8,415.8c-8.4-3-18.6-4.8-29.2-5.2l17.3-16.9
			c0.3-0.3,0.7-0.5,1.1-0.5s0.8,0.2,1.1,0.5l9.6,9.4C-140.8,403.1-140.8,415.8-140.8,415.8z M-152.3,381.5c2.5-0.5,4.9,0.6,5.3,2.5
			c0.4,1.9-1.4,3.8-3.9,4.3c-2.5,0.5-4.9-0.6-5.3-2.5C-156.6,383.9-154.8,382-152.3,381.5z M-173,389.1l11.1,10.8l-4.2,4.1
			c-2.9-0.1-5.9-0.2-8.8-0.2c-6,0-11.8,0.2-17.4,0.6l15.8-15.4C-175.6,388.1-174,388.1-173,389.1z"/>
	</g>
</g>
<g id="Layer_2">
	<g>
		<path fill="#FFFFFF" d="M-192.4,404.5c5.6-0.4,11.4-0.6,17.4-0.6c3,0,5.9,0.1,8.8,0.2l4.2-4.1l-11.1-10.8c-1-1-2.6-1-3.6,0
			L-192.4,404.5z"/>
		<path fill="#FFFFFF" d="M-175,405.9c-12.6,0-24.7,0.9-34.2,2.5v7.4c9.7-3.4,21.8-5.3,34.2-5.3c0.7,0,1.5,0,2.2,0l4.6-4.5
			C-170.4,405.9-172.7,405.9-175,405.9z"/>
		<path fill="#FFFFFF" d="M-151.6,393.2c-0.4,0-0.8,0.2-1.1,0.5l-17.3,16.9c10.6,0.4,20.8,2.3,29.2,5.2v-12.7l-9.6-9.4
			C-150.7,393.4-151.1,393.2-151.6,393.2z"/>
		<path fill="#FFFFFF" d="M-135,369.5c-0.7-0.5-1.6-0.5-2.4-0.1c-9.6,4.6-23.3,7.3-37.6,7.3s-28-2.7-37.6-7.3
			c-0.8-0.4-1.7-0.3-2.4,0.1c-0.7,0.5-1.2,1.3-1.2,2.1v50.9c0,0.9,0.4,1.7,1.2,2.1c0.4,0.3,0.9,0.4,1.3,0.4c0.4,0,0.7-0.1,1.1-0.2
			c9.6-4.6,23.3-7.3,37.6-7.3c14.3,0,28,2.7,37.6,7.3c0.8,0.4,1.7,0.3,2.4-0.1s1.2-1.3,1.2-2.1v-50.9
			C-133.8,370.8-134.3,370-135,369.5z M-138.8,418.7c-9.9-4-22.9-6.2-36.2-6.2s-26.3,2.2-36.2,6.2v-43.2c9.9,4,22.9,6.2,36.2,6.2
			c13.3,0,26.3-2.2,36.2-6.2V418.7z"/>
		<path fill="#FFFFFF" d="M-151,388.3c2.5-0.5,4.3-2.4,3.9-4.3c-0.4-1.9-2.7-3-5.3-2.5c-2.5,0.5-4.3,2.4-3.9,4.3
			C-155.9,387.7-153.5,388.8-151,388.3z"/>
	</g>
</g>
</svg>
