<?xml version="1.0" encoding="utf-8"?>
<!-- Generator: Adobe Illustrator 19.1.0, SVG Export Plug-In . SVG Version: 6.00 Build 0)  -->
<svg version="1.1" baseProfile="tiny" id="Layer_1" xmlns="http://www.w3.org/2000/svg" xmlns:xlink="http://www.w3.org/1999/xlink"
	 x="0px" y="0px" viewBox="-240 332 130 130" xml:space="preserve">
<g id="Layer_1_1_">
	<path fill="#000000" d="M-175,341c-31,0-56.1,25.1-56.1,56.1c0,31,25.1,56.1,56.1,56.1s56.1-25.1,56.1-56.1
		C-118.9,366.1-144,341-175,341z M-167.9,366.6c0.5-0.5,1.4-0.5,2,0l1.2,1.2c0.5,0.5,0.5,1.4,0,2l-25.3,25.3c-0.5,0.5-1.7,1.5-2,1.5
		c-0.3,0.1-0.8,0.1-1.1,0c-0.3-0.1-1.4-1-2-1.5l-7.8-7.8c-0.5-0.5-0.5-1.4,0-2l1.2-1.2c0.5-0.5,1.4-0.5,2,0l7.2,7.2L-167.9,366.6z
		 M-154.9,394c0.3-0.3,0.6-0.4,1-0.4c0.4,0,0.7,0.1,1,0.4l8.7,8.5v11.4c-7.6-2.7-16.7-4.3-26.3-4.7L-154.9,394z M-154.6,383
		c2.3-0.4,4.4,0.6,4.7,2.3c0.3,1.7-1.3,3.4-3.5,3.9c-2.3,0.4-4.4-0.6-4.7-2.3C-158.4,385.2-156.9,383.5-154.6,383z M-173,409.2
		c-0.7,0-1.3,0-2,0c-11.1,0-22,1.7-30.8,4.8v-6.7c8.5-1.4,19.4-2.3,30.8-2.3c2.1,0,4.1,0,6.2,0.1L-173,409.2z M-167,403.4
		c-2.6-0.1-5.3-0.1-8-0.1c-5.4,0-10.7,0.2-15.7,0.5l14.2-13.9c0.9-0.9,2.4-0.9,3.3,0l10,9.7L-167,403.4z M-137.9,420
		c0,0.8-0.4,1.5-1.1,1.9c-0.7,0.4-1.5,0.5-2.2,0.1c-8.7-4.2-21-6.6-33.8-6.6s-25.2,2.4-33.8,6.6c-0.3,0.2-0.6,0.2-1,0.2
		c-0.4,0-0.8-0.1-1.2-0.3c-0.7-0.4-1.1-1.1-1.1-1.9v-45.8c0-0.8,0.4-1.5,1.1-1.9c0.7-0.4,1.5-0.5,2.2-0.1c7,3.4,16.4,5.6,26.5,6.3
		l-4.1,4.1c-7.8-0.9-15.1-2.6-21.1-5v38.9c8.9-3.6,20.6-5.6,32.6-5.6c12,0,23.6,2,32.6,5.6v-38.9c-8.9,3.6-20.6,5.6-32.6,5.6
		c-0.2,0-0.5,0-0.7,0l4.6-4.6c11.4-0.4,22.2-2.7,30-6.5c0.7-0.3,1.5-0.3,2.2,0.1c0.7,0.4,1.1,1.1,1.1,1.9L-137.9,420L-137.9,420z"/>
</g>
<g id="Layer_2">
	<g>
		<path fill="#FFFFFF" d="M-176.5,389.9l-14.2,13.9c5-0.3,10.3-0.5,15.7-0.5c2.7,0,5.3,0,8,0.1l3.8-3.7l-10-9.7
			C-174.1,389-175.6,389-176.5,389.9z"/>
		<path fill="#FFFFFF" d="M-205.8,407.3v6.7c8.8-3.1,19.6-4.8,30.8-4.8c0.7,0,1.3,0,2,0l4.2-4.1c-2-0.1-4.1-0.1-6.2-0.1
			C-186.3,405-197.3,405.8-205.8,407.3z"/>
		<path fill="#FFFFFF" d="M-144.2,413.9v-11.4l-8.7-8.5c-0.3-0.3-0.6-0.4-1-0.4c-0.4,0-0.7,0.1-1,0.4l-15.6,15.2
			C-160.9,409.6-151.8,411.3-144.2,413.9z"/>
		<path fill="#FFFFFF" d="M-153.4,389.2c2.3-0.4,3.9-2.2,3.5-3.9c-0.3-1.7-2.4-2.7-4.7-2.3c-2.3,0.4-3.9,2.2-3.5,3.9
			C-157.8,388.6-155.7,389.6-153.4,389.2z"/>
		<path fill="#FFFFFF" d="M-199.8,384.2c-0.5-0.5-1.4-0.5-2,0l-1.2,1.2c-0.5,0.5-0.5,1.4,0,2l7.8,7.8c0.5,0.5,1.7,1.5,2,1.5
			c0.3,0.1,0.8,0.1,1.1,0c0.3-0.1,1.4-1,2-1.5l25.3-25.3c0.5-0.5,0.5-1.4,0-2l-1.2-1.2c-0.5-0.5-1.4-0.5-2,0l-24.7,24.7
			L-199.8,384.2z"/>
		<path fill="#FFFFFF" d="M-139,372.3c-0.7-0.4-1.5-0.5-2.2-0.1c-7.8,3.8-18.6,6.1-30,6.5l-4.6,4.6c0.2,0,0.5,0,0.7,0
			c12,0,23.6-2,32.6-5.6v38.9c-8.9-3.6-20.6-5.6-32.6-5.6s-23.6,2-32.6,5.6v-38.9c6,2.4,13.3,4.1,21.1,5l4.1-4.1
			c-10.1-0.7-19.5-2.9-26.5-6.3c-0.7-0.3-1.5-0.3-2.2,0.1c-0.7,0.4-1.1,1.1-1.1,1.9V420c0,0.8,0.4,1.5,1.1,1.9
			c0.4,0.2,0.8,0.3,1.2,0.3c0.3,0,0.7-0.1,1-0.2c8.7-4.2,21-6.6,33.8-6.6c12.8,0,25.2,2.4,33.8,6.6c0.7,0.3,1.5,0.3,2.2-0.1
			c0.7-0.4,1.1-1.1,1.1-1.9v-45.8C-137.9,373.4-138.3,372.7-139,372.3z"/>
	</g>
</g>
</svg>
