<?xml version="1.0" encoding="utf-8"?>
<!-- Generator: Adobe Illustrator 19.1.0, SVG Export Plug-In . SVG Version: 6.00 Build 0)  -->
<svg version="1.1" baseProfile="tiny" id="Layer_1" xmlns="http://www.w3.org/2000/svg" xmlns:xlink="http://www.w3.org/1999/xlink"
	 x="0px" y="0px" viewBox="-240 332 130 130" xml:space="preserve">
<g id="Layer_1_1_">
	<path fill="#000000" d="M-175,334.7c-34.4,0-62.4,27.9-62.4,62.4c0,34.4,27.9,62.4,62.4,62.4s62.4-27.9,62.4-62.4
		C-112.6,362.7-140.6,334.7-175,334.7z M-167.1,363.2c0.6-0.6,1.6-0.6,2.2,0l1.3,1.3c0.6,0.6,0.6,1.6,0,2.2l-28.2,28.2
		c-0.6,0.6-1.9,1.6-2.2,1.7c-0.3,0.1-0.9,0.1-1.3,0c-0.3-0.1-1.6-1.1-2.2-1.7l-8.6-8.6c-0.6-0.6-0.6-1.6,0-2.2l1.3-1.3
		c0.6-0.6,1.6-0.6,2.2,0l8,8L-167.1,363.2z M-152.7,393.7c0.3-0.3,0.7-0.5,1.1-0.5s0.8,0.2,1.1,0.4l9.6,9.4v12.7
		c-8.4-3-18.6-4.8-29.2-5.2L-152.7,393.7z M-152.3,381.5c2.5-0.5,4.9,0.6,5.3,2.5c0.4,1.9-1.4,3.8-3.9,4.3c-2.5,0.5-4.9-0.6-5.3-2.5
		C-156.6,383.9-154.8,382-152.3,381.5z M-172.8,410.5c-0.7,0-1.5,0-2.2,0c-12.4,0-24.5,1.9-34.2,5.3v-7.4c9.4-1.6,21.6-2.5,34.2-2.5
		c2.3,0,4.6,0,6.9,0.1L-172.8,410.5z M-166.2,404.1c-2.9-0.1-5.9-0.2-8.8-0.2c-6,0-11.8,0.2-17.4,0.6l15.8-15.4c1-1,2.6-1,3.7,0
		l11.1,10.8L-166.2,404.1z M-133.8,422.5c0,0.9-0.4,1.7-1.2,2.1c-0.7,0.5-1.6,0.5-2.4,0.1c-9.6-4.6-23.3-7.3-37.6-7.3
		s-28,2.7-37.6,7.3c-0.3,0.2-0.7,0.2-1.1,0.2c-0.5,0-0.9-0.1-1.3-0.4c-0.7-0.5-1.2-1.3-1.2-2.1v-50.9c0-0.9,0.4-1.7,1.2-2.1
		c0.7-0.5,1.6-0.5,2.4-0.1c7.8,3.8,18.2,6.2,29.4,7l-4.6,4.6c-8.6-0.9-16.7-2.8-23.4-5.5v43.2c9.9-4,22.9-6.2,36.2-6.2
		s26.3,2.2,36.2,6.2v-43.2c-9.9,4-22.9,6.2-36.2,6.2c-0.3,0-0.5,0-0.8,0l5.1-5.1c12.7-0.5,24.7-3,33.3-7.2c0.8-0.4,1.7-0.3,2.4,0.1
		c0.7,0.5,1.2,1.3,1.2,2.1L-133.8,422.5L-133.8,422.5z"/>
</g>
<g id="Layer_2">
	<g>
		<path fill="#FFFFFF" d="M-176.6,389.1l-15.8,15.4c5.6-0.4,11.4-0.6,17.4-0.6c3,0,5.9,0.1,8.8,0.2l4.2-4.1l-11.1-10.8
			C-174,388.1-175.6,388.1-176.6,389.1z"/>
		<path fill="#FFFFFF" d="M-209.2,408.4v7.4c9.7-3.4,21.8-5.3,34.2-5.3c0.7,0,1.5,0,2.2,0l4.6-4.5c-2.3-0.1-4.6-0.1-6.9-0.1
			C-187.6,405.9-199.7,406.8-209.2,408.4z"/>
		<path fill="#FFFFFF" d="M-140.8,415.8v-12.7l-9.6-9.4c-0.3-0.3-0.7-0.4-1.1-0.4c-0.4,0-0.8,0.2-1.1,0.5l-17.3,16.9
			C-159.4,411-149.2,412.9-140.8,415.8z"/>
		<path fill="#FFFFFF" d="M-151,388.3c2.5-0.5,4.3-2.4,3.9-4.3c-0.4-1.9-2.7-3-5.3-2.5c-2.5,0.5-4.3,2.4-3.9,4.3
			C-155.9,387.7-153.5,388.8-151,388.3z"/>
		<path fill="#FFFFFF" d="M-202.6,382.7c-0.6-0.6-1.6-0.6-2.2,0l-1.3,1.3c-0.6,0.6-0.6,1.6,0,2.2l8.6,8.6c0.6,0.6,1.9,1.6,2.2,1.7
			c0.3,0.1,0.9,0.1,1.3,0c0.3-0.1,1.6-1.1,2.2-1.7l28.2-28.2c0.6-0.6,0.6-1.6,0-2.2l-1.3-1.3c-0.6-0.6-1.6-0.6-2.2,0l-27.5,27.5
			L-202.6,382.7z"/>
		<path fill="#FFFFFF" d="M-135,369.5c-0.7-0.5-1.6-0.5-2.4-0.1c-8.7,4.2-20.6,6.7-33.3,7.2l-5.1,5.1c0.3,0,0.5,0,0.8,0
			c13.3,0,26.3-2.2,36.2-6.2v43.2c-9.9-4-22.9-6.2-36.2-6.2s-26.3,2.2-36.2,6.2v-43.2c6.7,2.7,14.8,4.6,23.4,5.5l4.6-4.6
			c-11.2-0.8-21.7-3.3-29.4-7c-0.8-0.4-1.7-0.3-2.4,0.1c-0.7,0.5-1.2,1.3-1.2,2.1v50.9c0,0.9,0.4,1.7,1.2,2.1
			c0.4,0.3,0.9,0.4,1.3,0.4c0.4,0,0.7-0.1,1.1-0.2c9.6-4.6,23.3-7.3,37.6-7.3c14.3,0,28,2.7,37.6,7.3c0.8,0.4,1.7,0.3,2.4-0.1
			s1.2-1.3,1.2-2.1v-50.9C-133.8,370.8-134.3,370-135,369.5z"/>
	</g>
</g>
</svg>
