<?xml version="1.0" encoding="utf-8"?>
<!-- Generator: Adobe Illustrator 19.1.0, SVG Export Plug-In . SVG Version: 6.00 Build 0)  -->
<svg version="1.1" baseProfile="tiny" id="Layer_1" xmlns="http://www.w3.org/2000/svg" xmlns:xlink="http://www.w3.org/1999/xlink"
	 x="0px" y="0px" viewBox="-240 332 130 130" xml:space="preserve">
<g id="Layer_1_1_">
	<g>
		<path fill="#000000" d="M-192.6,416.2h15.2v-16.7h-18.1C-195.3,405.5-194.2,411.2-192.6,416.2z"/>
		<path fill="#000000" d="M-195.5,394.5h18.1v-16.7h-15.2C-194.3,382.8-195.3,388.5-195.5,394.5z"/>
		<path fill="#000000" d="M-190.6,372.8h13.2v-13.2C-182.6,360.7-187.3,365.7-190.6,372.8z"/>
		<path fill="#000000" d="M-177.4,434.4v-13.2h-13.2C-187.3,428.3-182.6,433.2-177.4,434.4z"/>
		<path fill="#000000" d="M-197.9,377.8h-9.4c-2.9,4.9-4.8,10.6-5.2,16.7h12C-200.3,388.5-199.4,382.8-197.9,377.8z"/>
		<path fill="#000000" d="M-146,372.8c-3.7-4.4-8.4-8-13.8-10.4c2.3,2.8,4.4,6.3,6,10.4H-146z"/>
		<path fill="#000000" d="M-203.8,421.2c3.6,4.3,8.2,7.8,13.5,10.2c-2.3-2.8-4.3-6.3-5.8-10.2H-203.8z"/>
		<path fill="#000000" d="M-190.3,362.6c-5.2,2.4-9.9,5.9-13.5,10.2h7.6C-194.6,368.9-192.6,365.4-190.3,362.6z"/>
		<path fill="#000000" d="M-200.5,399.5h-12c0.4,6.1,2.2,11.8,5.2,16.7h9.4C-199.4,411.1-200.3,405.5-200.5,399.5z"/>
		<path fill="#000000" d="M-175,334.6c-34.4,0-62.4,27.9-62.4,62.4s27.9,62.4,62.4,62.4s62.4-27.9,62.4-62.4S-140.6,334.6-175,334.6
			z M-174.9,439.7c0,0-0.1,0-0.1,0c-0.1,0-0.3,0-0.4,0c-23.3-0.3-42.2-19.3-42.2-42.7c0-23.6,19.2-42.7,42.7-42.7
			c23.6,0,42.7,19.2,42.7,42.7C-132.2,420.5-151.3,439.7-174.9,439.7z"/>
		<path fill="#000000" d="M-159.8,431.5c5.3-2.4,10-5.9,13.7-10.3h-7.8C-155.4,425.2-157.5,428.7-159.8,431.5z"/>
		<path fill="#000000" d="M-152.1,416.2h9.6c3-5,4.8-10.6,5.2-16.7h-12.2C-149.7,405.5-150.6,411.1-152.1,416.2z"/>
		<path fill="#000000" d="M-172.4,359.6v13.2h13C-162.6,365.7-167.3,360.8-172.4,359.6z"/>
		<path fill="#000000" d="M-149.5,394.5h12.2c-0.4-6.1-2.2-11.7-5.2-16.7h-9.6C-150.6,382.8-149.7,388.5-149.5,394.5z"/>
		<path fill="#000000" d="M-172.4,421.2v13.2c5.1-1.2,9.8-6.1,13-13.2C-159.4,421.2-172.4,421.2-172.4,421.2z"/>
		<path fill="#000000" d="M-157.4,377.8h-15v16.7h17.9C-154.7,388.5-155.8,382.8-157.4,377.8z"/>
		<path fill="#000000" d="M-154.5,399.5h-17.9v16.7h15C-155.8,411.2-154.7,405.5-154.5,399.5z"/>
	</g>
</g>
<g id="Layer_2">
	<path fill="#FFFFFF" d="M-132.2,397c0-23.6-19.2-42.7-42.7-42.7c-23.6,0-42.7,19.2-42.7,42.7c0,23.4,18.9,42.4,42.2,42.7
		c0.1,0,0.3,0,0.4,0c0,0,0.1,0,0.1,0C-151.3,439.7-132.2,420.5-132.2,397z M-212.5,399.5h12c0.2,6,1.1,11.7,2.6,16.7h-9.4
		C-210.3,411.2-212.1,405.6-212.5,399.5z M-137.3,394.5h-12.2c-0.2-6-1.1-11.6-2.6-16.7h9.6C-139.5,382.8-137.7,388.4-137.3,394.5z
		 M-154.5,394.5h-17.9v-16.7h15C-155.8,382.8-154.7,388.5-154.5,394.5z M-172.4,372.8v-13.2c5.2,1.2,9.8,6.2,13,13.2L-172.4,372.8
		L-172.4,372.8z M-177.4,359.6v13.2h-13.2C-187.3,365.7-182.6,360.7-177.4,359.6z M-177.4,377.8v16.7h-18.1c0.2-6,1.3-11.7,2.9-16.7
		L-177.4,377.8L-177.4,377.8z M-200.5,394.5h-12c0.4-6.1,2.2-11.7,5.2-16.7h9.4C-199.4,382.8-200.3,388.5-200.5,394.5z
		 M-195.5,399.5h18.1v16.7h-15.2C-194.2,411.2-195.3,405.5-195.5,399.5z M-177.4,421.2v13.2c-5.2-1.2-9.9-6.1-13.2-13.2H-177.4z
		 M-172.4,434.4v-13.2h13C-162.7,428.2-167.3,433.1-172.4,434.4z M-172.4,416.2v-16.7h17.9c-0.2,6-1.3,11.7-2.9,16.7H-172.4z
		 M-149.5,399.5h12.2c-0.4,6.1-2.2,11.8-5.2,16.7h-9.6C-150.6,411.1-149.7,405.5-149.5,399.5z M-146,372.8h-7.8
		c-1.6-4-3.6-7.5-6-10.4C-154.4,364.8-149.7,368.4-146,372.8z M-190.3,362.6c-2.3,2.8-4.3,6.3-5.9,10.2h-7.6
		C-200.2,368.4-195.6,364.9-190.3,362.6z M-203.8,421.2h7.6c1.6,3.9,3.6,7.4,5.9,10.2C-195.6,429-200.2,425.5-203.8,421.2z
		 M-159.8,431.5c2.3-2.8,4.3-6.3,6-10.3h7.8C-149.7,425.6-154.4,429.2-159.8,431.5z"/>
</g>
</svg>
