<?xml version="1.0" encoding="utf-8"?>
<!-- Generator: Adobe Illustrator 19.1.0, SVG Export Plug-In . SVG Version: 6.00 Build 0)  -->
<svg version="1.1" baseProfile="tiny" id="Layer_1" xmlns="http://www.w3.org/2000/svg" xmlns:xlink="http://www.w3.org/1999/xlink"
	 x="0px" y="0px" viewBox="-240 332 130 130" xml:space="preserve">
<g id="Layer_1_1_">
	<g>
		<path fill="#000000" d="M-190.8,414.3h13.7v-15h-16.3C-193.3,404.7-192.3,409.8-190.8,414.3z"/>
		<path fill="#000000" d="M-193.5,394.7h16.3v-15h-13.7C-192.3,384.2-193.3,389.3-193.5,394.7z"/>
		<path fill="#000000" d="M-189.1,375.2h11.9v-11.9C-181.9,364.4-186.1,368.8-189.1,375.2z"/>
		<path fill="#000000" d="M-177.2,430.7v-11.9h-11.9C-186.1,425.2-181.9,429.6-177.2,430.7z"/>
		<path fill="#000000" d="M-195.6,379.7h-8.5c-2.6,4.5-4.3,9.6-4.6,15h10.8C-197.8,389.3-197,384.3-195.6,379.7z"/>
		<path fill="#000000" d="M-148.9,375.2c-3.3-4-7.6-7.2-12.4-9.3c2.1,2.6,3.9,5.7,5.4,9.3H-148.9z"/>
		<path fill="#000000" d="M-200.9,418.8c3.3,3.9,7.4,7.1,12.1,9.2c-2.1-2.5-3.8-5.6-5.3-9.2H-200.9z"/>
		<path fill="#000000" d="M-188.8,366c-4.7,2.1-8.9,5.3-12.2,9.2h6.9C-192.6,371.7-190.9,368.6-188.8,366z"/>
		<path fill="#000000" d="M-198,399.2h-10.8c0.4,5.5,2,10.6,4.7,15h8.5C-197,409.7-197.8,404.7-198,399.2z"/>
		<path fill="#000000" d="M-175,340.9c-31,0-56.1,25.1-56.1,56.1s25.1,56.1,56.1,56.1s56.1-25.1,56.1-56.1S-144,340.9-175,340.9z
			 M-174.9,435.4c0,0-0.1,0-0.1,0c-0.1,0-0.2,0-0.4,0c-21-0.2-38-17.4-38-38.4c0-21.2,17.2-38.4,38.4-38.4
			c21.2,0,38.4,17.2,38.4,38.4C-136.5,418.2-153.7,435.4-174.9,435.4z"/>
		<path fill="#000000" d="M-161.3,428.1c4.8-2.1,9-5.3,12.4-9.3h-7C-157.4,422.4-159.2,425.5-161.3,428.1z"/>
		<path fill="#000000" d="M-154.4,414.3h8.6c2.7-4.5,4.3-9.6,4.7-15h-11C-152.2,404.7-153,409.7-154.4,414.3z"/>
		<path fill="#000000" d="M-172.7,363.3v11.9h11.7C-163.9,368.9-168,364.5-172.7,363.3z"/>
		<path fill="#000000" d="M-152,394.7h11c-0.4-5.5-2-10.6-4.7-15h-8.6C-153,384.3-152.2,389.3-152,394.7z"/>
		<path fill="#000000" d="M-172.7,418.8v11.9c4.6-1.1,8.8-5.5,11.7-11.9C-160.9,418.8-172.7,418.8-172.7,418.8z"/>
		<path fill="#000000" d="M-159.2,379.7h-13.5v15h16.1C-156.7,389.3-157.7,384.2-159.2,379.7z"/>
		<path fill="#000000" d="M-156.5,399.2h-16.1v15h13.5C-157.7,409.8-156.7,404.7-156.5,399.2z"/>
	</g>
</g>
<g id="Layer_2">
	<path fill="#FFFFFF" d="M-136.5,397c0-21.2-17.2-38.4-38.4-38.4c-21.2,0-38.4,17.2-38.4,38.4c0,21.1,17,38.2,38,38.4
		c0.1,0,0.2,0,0.4,0c0,0,0.1,0,0.1,0C-153.7,435.4-136.5,418.2-136.5,397z M-208.8,399.2h10.8c0.2,5.4,1,10.5,2.3,15h-8.5
		C-206.8,409.8-208.4,404.7-208.8,399.2z M-141.1,394.7h-11c-0.2-5.4-1-10.5-2.3-15h8.6C-143.1,384.2-141.4,389.3-141.1,394.7z
		 M-156.5,394.7h-16.1v-15h13.5C-157.7,384.2-156.7,389.3-156.5,394.7z M-172.7,375.2v-11.9c4.6,1.1,8.8,5.5,11.7,11.9L-172.7,375.2
		L-172.7,375.2z M-177.2,363.3v11.9h-11.9C-186.1,368.8-181.9,364.4-177.2,363.3z M-177.2,379.7v15h-16.3c0.2-5.4,1.1-10.5,2.6-15
		L-177.2,379.7L-177.2,379.7z M-198,394.7h-10.8c0.4-5.5,2-10.6,4.6-15h8.5C-197,384.3-197.8,389.3-198,394.7z M-193.5,399.2h16.3
		v15h-13.7C-192.3,409.8-193.3,404.7-193.5,399.2z M-177.2,418.8v11.9c-4.7-1.1-8.9-5.5-11.9-11.9H-177.2z M-172.7,430.6v-11.9h11.7
		C-163.9,425.1-168,429.5-172.7,430.6z M-172.7,414.3v-15h16.1c-0.2,5.4-1.1,10.6-2.6,15H-172.7z M-152,399.2h11
		c-0.4,5.5-2,10.6-4.7,15h-8.6C-153,409.7-152.2,404.7-152,399.2z M-148.9,375.2h-7c-1.5-3.6-3.3-6.8-5.4-9.3
		C-156.5,368-152.2,371.2-148.9,375.2z M-188.8,366c-2.1,2.5-3.8,5.7-5.3,9.2h-6.9C-197.7,371.3-193.5,368.1-188.8,366z
		 M-200.9,418.8h6.9c1.4,3.5,3.2,6.6,5.3,9.2C-193.5,425.8-197.6,422.7-200.9,418.8z M-161.3,428.1c2.1-2.6,3.9-5.7,5.4-9.3h7
		C-152.3,422.7-156.5,425.9-161.3,428.1z"/>
</g>
</svg>
