<?xml version="1.0" encoding="utf-8"?>
<!-- Generator: Adobe Illustrator 15.0.2, SVG Export Plug-In . SVG Version: 6.00 Build 0)  -->
<!DOCTYPE svg PUBLIC "-//W3C//DTD SVG 1.1//EN" "http://www.w3.org/Graphics/SVG/1.1/DTD/svg11.dtd">
<svg version="1.1" xmlns="http://www.w3.org/2000/svg" xmlns:xlink="http://www.w3.org/1999/xlink" x="0px" y="0px" width="30px"
	 height="30px" viewBox="0 0 30 30" enable-background="new 0 0 30 30" xml:space="preserve">
<g id="Layer_1" display="none">
	<path display="inline" fill="none" stroke="#999999" stroke-width="3" stroke-miterlimit="10" d="M19.754,2.915
		c-0.353,2.153-1.939,4.066-4.76,4.066c-2.825,0-4.412-1.919-4.762-4.076c-4.829,1.899-8.257,6.58-8.257,12.083
		c0,7.183,5.823,13.007,13.006,13.007c7.184,0,13.007-5.824,13.007-13.007C27.987,9.494,24.57,4.821,19.754,2.915z"/>
</g>
<g id="Layer_1_copy" display="none">
	<path display="inline" fill="none" stroke="#000000" stroke-width="2" stroke-miterlimit="10" d="M19.754,2.915
		c-0.353,2.153-1.939,4.066-4.76,4.066c-2.825,0-4.412-1.919-4.762-4.076c-4.829,1.899-8.257,6.58-8.257,12.083
		c0,7.183,5.823,13.007,13.006,13.007c7.184,0,13.007-5.824,13.007-13.007C27.987,9.494,24.57,4.821,19.754,2.915z"/>
</g>
<g id="Layer_3">
	<circle fill="none" stroke="#999999" stroke-width="3" stroke-miterlimit="10" cx="15" cy="15" r="8.053"/>
</g>
<g id="Layer_3_copy">
	<circle fill="none" stroke="#000000" stroke-width="2" stroke-miterlimit="10" cx="15" cy="15" r="8.053"/>
</g>
<g id="Layer_5" display="none">
	<circle display="inline" fill="#EE1D3A" cx="15" cy="2.007" r="2.053"/>
</g>
</svg>
