<?xml version="1.0" encoding="utf-8"?>
<!-- Generator: Adobe Illustrator 19.1.0, SVG Export Plug-In . SVG Version: 6.00 Build 0)  -->
<svg version="1.1" baseProfile="tiny" id="Layer_1" xmlns="http://www.w3.org/2000/svg" xmlns:xlink="http://www.w3.org/1999/xlink"
	 x="0px" y="0px" viewBox="-240 332 130 130" xml:space="preserve">
<g id="Layer_1_1_">
	<path fill="#000000" d="M-135.3,357.3c-21.9-21.9-57.5-21.9-79.4,0s-21.9,57.5,0,79.4s57.5,21.9,79.4,0
		C-113.4,414.8-113.4,379.2-135.3,357.3z M-142.2,412.3l-15,15c-0.9,0.9-2.4,0.9-3.2,0l-10-10l-7,0.8c-1.3,0.1-3.2-0.2-4.3-0.7
		l-16.1-7.9c-1.1-0.6-1.6-1.9-1-3.1l1.4-2.8c0.6-1.1,2-1.6,3.1-1.1l6.2,2.9l-19-19c-0.9-0.9-0.9-2.4,0-3.2l1.8-1.8
		c0.9-0.9,2.4-0.9,3.2,0l12.3,12.3l2-2l-15.3-15.3c-0.9-0.9-0.9-2.4,0-3.2l1.8-1.8c0.9-0.9,2.4-0.9,3.2,0l15.3,15.3l2-2l-12.3-12.3
		c-0.9-0.9-0.9-2.4,0-3.2l1.8-1.8c0.9-0.9,2.4-0.9,3.2,0l12.3,12.3l1.6-1.6c0.1-0.1,0.3-0.2,0.4-0.3l-8.4-8.4
		c-0.9-0.9-0.9-2.4,0-3.2l1.8-1.8c0.9-0.9,2.4-0.9,3.2,0l21.2,21.2c0.9,0.9,1.8,2.6,2.1,3.9l2,9.8l9.9,9.9
		C-141.3,409.9-141.3,411.4-142.2,412.3z"/>
</g>
<g id="Layer_2">
	<path fill="#FFFFFF" d="M-142.2,409l-9.9-9.9l-2-9.8c-0.3-1.2-1.2-3-2.1-3.9l-21.2-21.2c-0.9-0.9-2.4-0.9-3.2,0l-1.8,1.8
		c-0.9,0.9-0.9,2.4,0,3.2l8.4,8.4c-0.2,0.1-0.3,0.2-0.4,0.3l-1.6,1.6l-12.3-12.3c-0.9-0.9-2.4-0.9-3.2,0l-1.8,1.8
		c-0.9,0.9-0.9,2.4,0,3.2l12.3,12.3l-2,2l-15.3-15.3c-0.9-0.9-2.4-0.9-3.2,0l-1.8,1.8c-0.9,0.9-0.9,2.4,0,3.2l15.3,15.3l-2,2
		l-12.3-12.3c-0.9-0.9-2.4-0.9-3.2,0l-1.8,1.8c-0.9,0.9-0.9,2.4,0,3.2l19,19l-6.2-2.9c-1.1-0.5-2.5-0.1-3.1,1.1l-1.4,2.8
		c-0.6,1.1-0.1,2.5,1,3.1l16.1,7.9c1.1,0.6,3.1,0.9,4.3,0.7l7-0.8l10,10c0.9,0.9,2.4,0.9,3.2,0l15-15
		C-141.3,411.4-141.3,409.9-142.2,409z"/>
</g>
</svg>
