<?xml version="1.0" encoding="utf-8"?>
<!-- Generator: Adobe Illustrator 19.1.0, SVG Export Plug-In . SVG Version: 6.00 Build 0)  -->
<svg version="1.1" baseProfile="tiny" id="Layer_1" xmlns="http://www.w3.org/2000/svg" xmlns:xlink="http://www.w3.org/1999/xlink"
	 x="0px" y="0px" viewBox="-240 332 130 130" xml:space="preserve">
<g id="Layer_1_1_">
	<path fill="#000000" d="M-175,334.8c-34.4,0-62.4,27.9-62.4,62.4c0,34.4,27.9,62.4,62.4,62.4c34.4,0,62.4-27.9,62.4-62.4
		C-112.6,362.7-140.6,334.8-175,334.8z M-190.2,367.4l14.1-19.8c0.3-0.4,0.6-0.6,1.2-0.6c0.4,0,0.7,0.2,1.1,0.6l14.2,19.8
		c0.3,0.4,0.4,1,0.1,1.5c-0.3,0.5-0.6,0.7-1.2,0.7h-8.4h-0.1v15c0,0.8-0.4,1.2-1.1,1.1l-9.1,0c-0.7,0.1-1.1-0.3-1.1-1.1v-15h-8.5
		c-0.5,0-0.9-0.2-1.2-0.7C-190.7,368.4-190.6,367.9-190.2,367.4z M-202.5,411.3c0,0.5-0.2,0.9-0.7,1.2c-0.5,0.3-1.1,0.2-1.5-0.1
		l-19.8-14.1c-0.4-0.3-0.6-0.6-0.6-1.2c0-0.4,0.2-0.7,0.6-1.1l19.8-14.2c0.4-0.3,1-0.4,1.5-0.1c0.5,0.3,0.7,0.6,0.7,1.2v8.5v0.1
		l15,0c0.8,0,1.2,0.4,1.1,1.1l0,9.1c0.1,0.7-0.3,1.1-1.1,1.1l-15,0V411.3z M-159.8,426.8l-14.1,19.8c-0.3,0.4-0.6,0.6-1.2,0.6
		c-0.4,0-0.7-0.2-1.1-0.6l-14.2-19.8c-0.3-0.4-0.4-1-0.1-1.5c0.3-0.5,0.6-0.7,1.2-0.7h8.5h0.1l0-15c0-0.8,0.4-1.2,1.1-1.1l9.1,0
		c0.7-0.1,1.1,0.3,1.1,1.1l0,15h8.5c0.5,0,0.9,0.2,1.2,0.7S-159.4,426.4-159.8,426.8z M-125.5,398.2l-19.8,14.2
		c-0.4,0.3-1,0.4-1.5,0.1c-0.5-0.3-0.7-0.6-0.7-1.2v-8.5v-0.1h-15c-0.8,0-1.2-0.4-1.1-1.1l0-9.1c-0.1-0.7,0.3-1.1,1.1-1.1h15V383
		c0-0.5,0.2-0.9,0.7-1.2c0.5-0.3,1.1-0.2,1.5,0.1l19.8,14.1c0.4,0.3,0.6,0.6,0.6,1.2C-124.8,397.6-125.1,397.9-125.5,398.2z"/>
</g>
<g id="Layer_2">
	<g>
		<path fill="#FFFFFF" d="M-189.2,369.7h8.5v15c0,0.8,0.4,1.2,1.1,1.1l9.1,0c0.7,0.1,1.1-0.3,1.1-1.1v-15h0.1h8.4
			c0.5,0,0.9-0.2,1.2-0.7c0.3-0.5,0.2-1.1-0.1-1.5l-14.2-19.8c-0.3-0.4-0.6-0.6-1.1-0.6c-0.5,0-0.9,0.2-1.2,0.6l-14.1,19.8
			c-0.3,0.4-0.4,1-0.1,1.5C-190,369.5-189.7,369.7-189.2,369.7z"/>
		<path fill="#FFFFFF" d="M-160.8,424.6h-8.5l0-15c0-0.8-0.4-1.2-1.1-1.1l-9.1,0c-0.7-0.1-1.1,0.3-1.1,1.1l0,15h-0.1h-8.5
			c-0.5,0-0.9,0.2-1.2,0.7c-0.3,0.5-0.2,1.1,0.1,1.5l14.2,19.8c0.3,0.4,0.6,0.6,1.1,0.6c0.5,0,0.9-0.2,1.2-0.6l14.1-19.8
			c0.3-0.4,0.4-1,0.1-1.5C-160,424.8-160.3,424.6-160.8,424.6z"/>
		<path fill="#FFFFFF" d="M-125.5,396l-19.8-14.1c-0.4-0.3-1-0.4-1.5-0.1c-0.5,0.3-0.7,0.6-0.7,1.2v8.5h-15c-0.8,0-1.2,0.4-1.1,1.1
			l0,9.1c-0.1,0.7,0.3,1.1,1.1,1.1h15v0.1v8.5c0,0.5,0.2,0.9,0.7,1.2s1.1,0.2,1.5-0.1l19.8-14.2c0.4-0.3,0.6-0.6,0.6-1.1
			C-124.8,396.6-125.1,396.3-125.5,396z"/>
		<path fill="#FFFFFF" d="M-186.4,401.7l0-9.1c0.1-0.7-0.3-1.1-1.1-1.1l-15,0v-0.1V383c0-0.5-0.2-0.9-0.7-1.2
			c-0.5-0.3-1.1-0.2-1.5,0.1l-19.8,14.2c-0.4,0.3-0.6,0.6-0.6,1.1c0,0.5,0.2,0.9,0.6,1.2l19.8,14.1c0.4,0.3,1,0.4,1.5,0.1
			c0.5-0.3,0.7-0.6,0.7-1.2v-8.5l15,0C-186.7,402.8-186.3,402.4-186.4,401.7z"/>
	</g>
</g>
</svg>
