<?xml version="1.0" encoding="utf-8"?>
<!-- Generator: Adobe Illustrator 19.1.0, SVG Export Plug-In . SVG Version: 6.00 Build 0)  -->
<svg version="1.1" baseProfile="tiny" id="Layer_1" xmlns="http://www.w3.org/2000/svg" xmlns:xlink="http://www.w3.org/1999/xlink"
	 x="0px" y="0px" viewBox="-240 332 130 130" xml:space="preserve">
<g id="Layer_1_1_">
	<path fill="#000000" d="M-175,341c-31,0-56.1,25.1-56.1,56.1c0,31,25.1,56.1,56.1,56.1c31,0,56.1-25.1,56.1-56.1
		C-118.9,366.1-144,341-175,341z M-188.7,370.4l12.7-17.8c0.3-0.4,0.6-0.6,1.1-0.6c0.4,0,0.7,0.2,1,0.6l12.8,17.8
		c0.3,0.4,0.4,0.9,0.1,1.3c-0.3,0.5-0.6,0.7-1.1,0.7h-7.6h-0.1v13.5c0,0.7-0.4,1.1-1,1l-8.2,0c-0.6,0.1-1-0.3-1-1v-13.5h-7.7
		c-0.5,0-0.8-0.2-1.1-0.7C-189.1,371.3-189,370.8-188.7,370.4z M-199.7,409.9c0,0.5-0.2,0.8-0.7,1.1c-0.5,0.3-1,0.2-1.3-0.1
		l-17.8-12.7c-0.4-0.3-0.6-0.6-0.6-1.1c0-0.4,0.2-0.7,0.6-1l17.8-12.8c0.4-0.3,0.9-0.4,1.3-0.1c0.5,0.3,0.7,0.6,0.7,1.1v7.6v0.1
		l13.5,0c0.7,0,1.1,0.4,1,1l0,8.2c0.1,0.6-0.3,1-1,1l-13.5,0V409.9z M-161.3,423.9l-12.7,17.8c-0.3,0.4-0.6,0.6-1.1,0.6
		c-0.4,0-0.7-0.2-1-0.6l-12.8-17.8c-0.3-0.4-0.4-0.9-0.1-1.3c0.3-0.5,0.6-0.7,1.1-0.7h7.6h0.1l0-13.5c0-0.7,0.4-1.1,1-1l8.2,0
		c0.6-0.1,1,0.3,1,1l0,13.5h7.7c0.5,0,0.8,0.2,1.1,0.7S-161,423.5-161.3,423.9z M-130.4,398.1l-17.8,12.8c-0.4,0.3-0.9,0.4-1.3,0.1
		c-0.5-0.3-0.7-0.6-0.7-1.1v-7.6v-0.1h-13.5c-0.7,0-1.1-0.4-1-1l0-8.2c-0.1-0.6,0.3-1,1-1h13.5v-7.7c0-0.5,0.2-0.8,0.7-1.1
		c0.5-0.3,1-0.2,1.3,0.1l17.8,12.7c0.4,0.3,0.6,0.6,0.6,1.1C-129.9,397.5-130,397.8-130.4,398.1z"/>
</g>
<g id="Layer_2">
	<g>
		<path fill="#FFFFFF" d="M-187.8,372.4h7.7v13.5c0,0.7,0.4,1.1,1,1l8.2,0c0.6,0.1,1-0.3,1-1v-13.5h0.1h7.6c0.5,0,0.8-0.2,1.1-0.7
			c0.3-0.5,0.2-1-0.1-1.3l-12.8-17.8c-0.3-0.4-0.6-0.6-1-0.6c-0.5,0-0.8,0.2-1.1,0.6l-12.7,17.8c-0.3,0.4-0.4,0.9-0.1,1.3
			C-188.5,372.2-188.2,372.4-187.8,372.4z"/>
		<path fill="#FFFFFF" d="M-162.2,421.9h-7.7l0-13.5c0-0.7-0.4-1.1-1-1l-8.2,0c-0.6-0.1-1,0.3-1,1l0,13.5h-0.1h-7.6
			c-0.5,0-0.8,0.2-1.1,0.7c-0.3,0.5-0.2,1,0.1,1.3l12.8,17.8c0.3,0.4,0.6,0.6,1,0.6c0.5,0,0.8-0.2,1.1-0.6l12.7-17.8
			c0.3-0.4,0.4-0.9,0.1-1.3C-161.5,422-161.8,421.9-162.2,421.9z"/>
		<path fill="#FFFFFF" d="M-130.4,396.1l-17.8-12.7c-0.4-0.3-0.9-0.4-1.3-0.1c-0.5,0.3-0.7,0.6-0.7,1.1v7.7h-13.5
			c-0.7,0-1.1,0.4-1,1l0,8.2c-0.1,0.6,0.3,1,1,1h13.5v0.1v7.6c0,0.5,0.2,0.8,0.7,1.1s1,0.2,1.3-0.1l17.8-12.8c0.4-0.3,0.6-0.6,0.6-1
			C-129.9,396.7-130,396.4-130.4,396.1z"/>
		<path fill="#FFFFFF" d="M-185.3,401.2l0-8.2c0.1-0.6-0.3-1-1-1l-13.5,0V392v-7.6c0-0.5-0.2-0.8-0.7-1.1c-0.5-0.3-1-0.2-1.3,0.1
			l-17.8,12.8c-0.4,0.3-0.6,0.6-0.6,1c0,0.5,0.2,0.8,0.6,1.1l17.8,12.7c0.4,0.3,0.9,0.4,1.3,0.1c0.5-0.3,0.7-0.6,0.7-1.1v-7.7
			l13.5,0C-185.5,402.2-185.2,401.9-185.3,401.2z"/>
	</g>
</g>
</svg>
