<?xml version="1.0" encoding="utf-8"?>
<!-- Generator: Adobe Illustrator 19.1.0, SVG Export Plug-In . SVG Version: 6.00 Build 0)  -->
<svg version="1.1" baseProfile="tiny" id="Layer_1" xmlns="http://www.w3.org/2000/svg" xmlns:xlink="http://www.w3.org/1999/xlink"
	 x="0px" y="0px" viewBox="-240 332 130 130" xml:space="preserve">
<g id="Layer_1_1_">
	<path fill="#000000" d="M-130.9,352.8c-24.4-24.4-63.8-24.4-88.2,0s-24.4,63.8,0,88.2s63.8,24.4,88.2,0
		C-106.6,416.6-106.6,377.2-130.9,352.8z M-138.5,413.9l-16.7,16.7c-1,1-2.6,1-3.6,0l-11.1-11.1l-7.8,0.9c-1.4,0.2-3.6-0.2-4.8-0.8
		l-17.9-8.7c-1.3-0.6-1.8-2.1-1.2-3.4l1.6-3.2c0.6-1.3,2.2-1.8,3.4-1.2l6.8,3.3l-21.1-21.1c-1-1-1-2.6,0-3.6l2-2c1-1,2.6-1,3.6,0
		l13.7,13.7l2.2-2.2l-17-17c-1-1-1-2.6,0-3.6l2-2c1-1,2.6-1,3.6,0l17,17l2.2-2.2l-13.7-13.7c-1-1-1-2.6,0-3.6l2-2c1-1,2.6-1,3.6,0
		l13.7,13.7l1.8-1.8c0.1-0.1,0.3-0.3,0.5-0.4l-9.4-9.4c-1-1-1-2.6,0-3.6l2-2c1-1,2.6-1,3.6,0l23.6,23.6c1,1,2,2.9,2.3,4.3l2.2,10.8
		l11,11C-137.5,411.3-137.5,412.9-138.5,413.9z"/>
</g>
<g id="Layer_2">
	<path fill="#FFFFFF" d="M-138.5,410.3l-11-11l-2.2-10.8c-0.3-1.4-1.3-3.3-2.3-4.3l-23.6-23.6c-1-1-2.6-1-3.6,0l-2,2
		c-1,1-1,2.6,0,3.6l9.4,9.4c-0.2,0.1-0.3,0.2-0.5,0.4l-1.8,1.8l-13.7-13.7c-1-1-2.6-1-3.6,0l-2,2c-1,1-1,2.6,0,3.6l13.7,13.7
		l-2.2,2.2l-17-17c-1-1-2.6-1-3.6,0l-2,2c-1,1-1,2.6,0,3.6l17,17l-2.2,2.2l-13.7-13.7c-1-1-2.6-1-3.6,0l-2,2c-1,1-1,2.6,0,3.6
		l21.1,21.1l-6.9-3.3c-1.3-0.6-2.8-0.1-3.4,1.2l-1.6,3.2c-0.6,1.3-0.1,2.8,1.2,3.4l17.9,8.7c1.3,0.6,3.4,1,4.8,0.8l7.8-0.9
		l11.1,11.1c1,1,2.6,1,3.6,0l16.7-16.7C-137.5,412.9-137.5,411.3-138.5,410.3z"/>
</g>
</svg>
